<svg width="382" height="383" viewBox="0 0 382 383" fill="none" xmlns="http://www.w3.org/2000/svg">
<path d="M337.574 197.164C337.574 275.865 269.073 339.664 184.574 339.664C100.074 339.664 31.5738 275.865 31.5738 197.164C31.5738 118.463 100.074 54.6641 184.574 54.6641C269.073 54.6641 337.574 118.463 337.574 197.164Z" fill="#AD77CE"/>
<path d="M165.574 340.164C165.574 353.143 137.592 363.664 103.074 363.664C68.556 363.664 40.5738 353.143 40.5738 340.164C40.5738 327.185 68.556 316.664 103.074 316.664C137.592 316.664 165.574 327.185 165.574 340.164Z" fill="#AD77CE"/>
<path d="M330.574 340.164C330.574 353.143 303.263 363.664 269.574 363.664C235.884 363.664 208.574 353.143 208.574 340.164C208.574 327.185 235.884 316.664 269.574 316.664C303.263 316.664 330.574 327.185 330.574 340.164Z" fill="#AD77CE"/>
<path d="M292.043 0L291.484 104.533L205.694 58.9174L292.043 0Z" fill="#AD77CE"/>
<path d="M77.1045 4.98717e-06L163.453 58.9174L77.6636 104.533L77.1045 4.98717e-06Z" fill="#AD77CE"/>
<path d="M45.4247 235.446C38.0478 273.397 22.7789 302.357 11.3207 300.13C-0.137525 297.903 -3.44603 265.332 3.93092 227.381C11.3079 189.43 26.5768 160.47 38.035 162.697C49.4932 164.924 52.8017 197.495 45.4247 235.446Z" fill="#AD77CE"/>
<path d="M365.425 227.381C372.802 265.332 369.493 297.903 358.035 300.13C346.577 302.357 331.308 273.397 323.931 235.446C316.554 197.495 319.862 164.924 331.321 162.697C342.779 160.47 358.048 189.43 365.425 227.381Z" fill="#AD77CE"/>
<path d="M349.574 216.164C349.574 294.865 281.073 358.664 196.574 358.664C112.074 358.664 43.5738 294.865 43.5738 216.164C43.5738 137.463 112.074 73.6641 196.574 73.6641C281.073 73.6641 349.574 137.463 349.574 216.164Z" fill="#D9D9D9"/>
<path d="M177.574 359.164C177.574 372.143 149.592 382.664 115.074 382.664C80.556 382.664 52.5738 372.143 52.5738 359.164C52.5738 346.185 80.556 335.664 115.074 335.664C149.592 335.664 177.574 346.185 177.574 359.164Z" fill="#D9D9D9"/>
<path d="M342.574 359.164C342.574 372.143 315.263 382.664 281.574 382.664C247.884 382.664 220.574 372.143 220.574 359.164C220.574 346.185 247.884 335.664 281.574 335.664C315.263 335.664 342.574 346.185 342.574 359.164Z" fill="#D9D9D9"/>
<path d="M304.043 19L303.484 123.533L217.694 77.9174L304.043 19Z" fill="#D9D9D9"/>
<path d="M89.1045 19L175.453 77.9174L89.6636 123.533L89.1045 19Z" fill="#D9D9D9"/>
<path d="M57.4247 254.446C50.0478 292.397 34.7789 321.357 23.3207 319.13C11.8625 316.903 8.55397 284.332 15.9309 246.381C23.3079 208.43 38.5768 179.47 50.035 181.697C61.4932 183.924 64.8017 216.495 57.4247 254.446Z" fill="#D9D9D9"/>
<path d="M377.425 246.381C384.802 284.332 381.493 316.903 370.035 319.13C358.577 321.357 343.308 292.397 335.931 254.446C328.554 216.495 331.862 183.924 343.321 181.697C354.779 179.47 370.048 208.43 377.425 246.381Z" fill="#D9D9D9"/>
<ellipse cx="148.5" cy="164" rx="25.5" ry="25" fill="white"/>
<ellipse cx="250.5" cy="164" rx="25.5" ry="25" fill="white"/>
<ellipse cx="197" cy="260.5" rx="12" ry="10.5" fill="#E340C0"/>
<ellipse cx="250" cy="163.5" rx="19" ry="18.5" fill="#6BE340"/>
<ellipse cx="148" cy="163.5" rx="19" ry="18.5" fill="#6BE340"/>
<ellipse cx="250" cy="164.5" rx="12" ry="10.5" fill="black"/>
<ellipse cx="148" cy="163.5" rx="12" ry="10.5" fill="black"/>
<ellipse cx="223.202" cy="237.409" rx="26" ry="15" transform="rotate(0.905787 223.202 237.409)" fill="white"/>
<ellipse cx="174" cy="237" rx="26" ry="15" fill="white"/>
<path d="M200.962 237.853C198.961 240.453 195.039 240.453 193.038 237.853L178.948 219.55C176.417 216.262 178.761 211.5 182.91 211.5H211.09C215.239 211.5 217.583 216.262 215.052 219.55L200.962 237.853Z" fill="#E88CD4"/>
<line x1="168.808" y1="229.462" x2="84.8077" y2="194.462" stroke="black"/>
<line x1="76" y1="236.5" x2="167" y2="236.5" stroke="black"/>
<line x1="231" y1="236.5" x2="322" y2="236.5" stroke="black"/>
<line x1="230.785" y1="228.549" x2="314.785" y2="188.549" stroke="black"/>
<line x1="86.785" y1="280.549" x2="170.785" y2="240.549" stroke="black"/>
<line x1="314.808" y1="272.462" x2="230.808" y2="237.462" stroke="black"/>
</svg>
